<svg xmlns="http://www.w3.org/2000/svg" xmlns:svg="http://www.w3.org/2000/svg" viewBox="74 0 113.55 107">         <path d="m186.51,35.11l-17,55.3c-3.8,12.3 -17,19.3 -29.3,15.6l-11.6,-3.6c-10.1,-3.1 -16.6,-12.5 -16.6,-22.6c2.7,-0.1 5.3,-0.9 7.8,-2.2l14.4,-7.7c9.3,-4.9 12.8,-16.4 7.9,-25.7l-12.7,-24.2l0.7,-2.2c3.8,-12.3 17,-19.3 29.3,-15.6l11.6,3.6c12.3,3.8 19.3,17 15.5,29.3z" fill="#ff007f" id="svg_4"></path>         <path d="m134.41,68.91l-14.4,7.7c-2.5,1.3 -5.2,2 -7.8,2.2c0,-2.2 0.3,-4.5 1,-6.7l16.3,-53.1l12.9,24.2c4.8,9.3 1.2,20.8 -8,25.7z" fill="#FF8389" id="svg_5"></path>         <path d="m129.41,20.01l-16.3,53.1c-0.7,2.2 -1,4.5 -1,6.7c-7.2,0.4 -14.3,-3.3 -17.8,-10.1l-18.1,-34.1c-4.9,-9.3 -1.4,-20.8 7.9,-25.7l14.4,-7.7c9.3,-4.9 20.8,-1.4 25.7,7.9l5.2,9.9z" fill="#FFCD2E" id="svg_6"></path> </svg>
